<?xml version="1.0" standalone="no"?><!DOCTYPE svg PUBLIC "-//W3C//DTD SVG 1.1//EN" "http://www.w3.org/Graphics/SVG/1.1/DTD/svg11.dtd"><svg t="1702898504598" class="icon" viewBox="0 0 1024 1024" version="1.1" xmlns="http://www.w3.org/2000/svg" p-id="7200" xmlns:xlink="http://www.w3.org/1999/xlink" width="200" height="200"><path d="M452.1 510.5a59.8 59.8 0 1 0 119.6 0 59.8 59.8 0 1 0-119.6 0Z" fill="#ffffff" p-id="7201"></path><path d="M772.2 64.2H403.6v245.9l-54-66.2-54 66.2V64.2H252c-33 0-60 27-60 60v776c0 33 27 60 60 60h520.1c33 0 60-27 60-60v-776c0.1-33-26.9-60-59.9-60zM667.8 574.7l-23.5 40.7c-3.2 5.5-10.2 7.4-15.7 4.2l-23.3-13.5c-4.1-2.3-9.2-2-12.8 1-11.3 8.9-24 15.9-37.8 20.7-4.6 1.6-7.6 6-7.6 10.8v28.2c0 6.3-5.1 11.5-11.5 11.5h-46.9c-6.3 0-11.5-5.1-11.5-11.5v-27.9c0-4.9-3.1-9.3-7.7-10.8-14-4.7-26.9-11.8-38.3-20.7-3.7-2.9-8.7-3.3-12.8-0.9l-22.9 13.2c-5.5 3.2-12.5 1.3-15.7-4.2l-23.5-40.7c-3.2-5.5-1.3-12.5 4.2-15.7l18.4-10.7c4.4-2.6 6.7-7.8 5.5-12.7-2.6-10.2-3.9-20.8-3.9-31.8 0-6.2 0.4-12.4 1.3-18.4 0.6-4.6-1.5-9.2-5.6-11.6l-15.8-9.1c-5.5-3.2-7.4-10.2-4.2-15.7l23.5-40.6c3.2-5.5 10.2-7.4 15.7-4.2l11.8 6.8c4.4 2.5 10 1.9 13.6-1.6 13.7-13.1 30.2-23.3 48.5-29.6 4.6-1.6 7.7-6 7.7-10.9v-11.9c0-6.3 5.1-11.5 11.5-11.5h46.9c6.3 0 11.5 5.1 11.5 11.5v12.2c0 4.9 3 9.2 7.6 10.8 18.2 6.3 34.5 16.5 48.1 29.5 3.7 3.5 9.3 4.2 13.6 1.6l12.4-7.1c5.5-3.2 12.5-1.3 15.7 4.2l23.5 40.7c3.2 5.5 1.3 12.5-4.2 15.7l-16.5 9.6c-4.1 2.3-6.3 6.9-5.6 11.5 0.8 5.9 1.3 12 1.3 18.2 0 10.8-1.3 21.3-3.8 31.3-1.2 4.9 1.1 10 5.4 12.6l19.3 11.2c5.3 3.1 7.2 10.1 4.1 15.6z" fill="#ffffff" p-id="7202"></path></svg>